# xmcd
#
# Track frame offsets: 
#        150
#        11518
#        21558
#        34009
#        51196
#        62472
#        73707
#        84714
#        95855
#        106351
#        118512
#        130918
#        140799
#        151520
#        163619
#        176893
#        187955
#        203130
#        219211
#        229481
#
# Disc length: 3251 seconds
#
# Revision: 0
# Processed by: cddbd v1.5.2PL0 Copyright (c) Steve Scherf et al.
# Submitted via: ExactAudioCopy v1.0b3
#
DISCID=1c0cb114
DTITLE=Bobby Bare - 20 Bare Essentials
DYEAR=2006
DGENRE=Country
TTITLE0=How I Got To Memphis
TTITLE1=Help Me Make It Through The Night
TTITLE2=Come Sundown
TTITLE3=Sylvia's Mother
TTITLE4=Music City,USA
TTITLE5=Please Don't Tell Me How The Story Ends
TTITLE6=Hello Darlin'
TTITLE7=Short And Sweet
TTITLE8=Crazy Arms
TTITLE9=LOVIN' Her Was Easier
TTITLE10=The Year That Clayton Delaney Died
TTITLE11=What Am I Gonna Do
TTITLE12=Don't You Ever Get Tired Of Hurtin' Me
TTITLE13=Roses Are Red My LOVE
TTITLE14=Mama Bake A Pie,Papa Kill A Chicken
TTITLE15=Lonely Street
TTITLE16=For The Good Times
TTITLE17=Me And Bobby McGee
TTITLE18=Are You Sincere
TTITLE19=Leavin' On A Jet Plane
EXTD=
EXTT0=
EXTT1=
EXTT2=
EXTT3=
EXTT4=
EXTT5=
EXTT6=
EXTT7=
EXTT8=
EXTT9=
EXTT10=
EXTT11=
EXTT12=
EXTT13=
EXTT14=
EXTT15=
EXTT16=
EXTT17=
EXTT18=
EXTT19=
PLAYORDER=
